# xmcd
#
# Track frame offsets: 
#        183
#        18153
#        34238
#        55873
#        69343
#        83473
#        99548
#        120823
#        133868
#        156305
#        169135
#        181860
#        201218
#        213558
#        226328
#        238778
#
# Disc length: 3575 seconds
#
# Revision: 7
# Processed by: cddbd v1.5.2PL0 Copyright (c) Steve Scherf et al.
# Submitted via: ExactAudioCopy v1.1
#
DISCID=ce0df510
DTITLE=Various Artist - The Blues at Christmas - The Very Best of The
DTITLE=Blues
DYEAR=1993
DGENRE=Blues
TTITLE0=Sherman Robertson - I'm Your Man
TTITLE1=B.B. King - It's My Own Fault Baby
TTITLE2=Larry Garner - Thought I Had the Blues
TTITLE3=Charles Brown - Merry Christmas Baby
TTITLE4=Albert Collins - Ice Pick
TTITLE5=John Lee Hooker - My First Wife Left Me
TTITLE6=Magic Sam - I Feel So Good
TTITLE7=Elmore James - Dust My Broom
TTITLE8=Fred McDowell - Some Day Baby
TTITLE9=Rory Block - Rolling Log
TTITLE10=Robert Johnson - Come On In My Kitchen
TTITLE11=Professor Longhair - Mess Around
TTITLE12=Memphis Minnie - Nothing In Ramblin'
TTITLE13=T-Bone Walker - Stormy Monday Blues
TTITLE14=Lightnin' Slim - Wintertime Done Rolled Up
TTITLE15=Lonnie Brooks - Two Headed Man
EXTD=YEAR: 1993
EXTT0=
EXTT1=
EXTT2=
EXTT3=
EXTT4=
EXTT5=
EXTT6=
EXTT7=
EXTT8=
EXTT9=
EXTT10=
EXTT11=
EXTT12=
EXTT13=
EXTT14=
EXTT15=
PLAYORDER=
